<?xml version="1.0" standalone="no"?><!DOCTYPE svg PUBLIC "-//W3C//DTD SVG 1.1//EN" "http://www.w3.org/Graphics/SVG/1.1/DTD/svg11.dtd"><svg t="1555220419147" class="icon" style="" viewBox="0 0 1024 1024" version="1.1" xmlns="http://www.w3.org/2000/svg" p-id="16760" xmlns:xlink="http://www.w3.org/1999/xlink" width="200" height="200"><defs><style type="text/css"></style></defs><path d="M510.805 147.206c-187.374 0-339.266 151.875-339.266 339.267 0 187.359 151.892 339.266 339.266 339.266s339.266-151.907 339.266-339.266c0-187.392-151.891-339.267-339.266-339.267z m0 491.935c-84.318 0-152.669-68.35-152.669-152.668 0-84.32 68.35-152.67 152.67-152.67 84.319 0 152.668 68.35 152.668 152.67 0 84.318-68.35 152.668-152.669 152.668zM395.789 840.549c-24.153 27.929-75.258 86.969-88.543 101.647-17.51 19.349 59.57 19.415 202.334 19.415s219.843-0.065 202.317-19.415c-13.385-14.778-65.203-74.645-89.107-102.31-35.765 12.789-74.281 19.78-114.453 19.78-39.442 0-77.33-6.76-112.548-19.117zM578.658 119.574c-5.184-32.402-33.578-57.185-67.854-57.185-34.273 0-62.667 24.783-67.853 57.185 21.983-4.141 44.661-6.294 67.853-6.294s45.872 2.153 67.854 6.294z" fill="#000000" p-id="16761"></path></svg>